<svg version="1.1" id="Layer_1" xmlns="http://www.w3.org/2000/svg" xmlns:xlink="http://www.w3.org/1999/xlink" x="0px" y="0px"
	 width="100%" viewBox="0 0 256 136" enable-background="new 0 0 256 136" xml:space="preserve">
<path fill="#FEFDFD" opacity="1.000000" stroke="none" 
	d="
M186.000000,137.000000 
	C124.000000,137.000000 62.500008,137.000000 1.000008,137.000000 
	C1.000005,91.666672 1.000005,46.333347 1.000003,1.000014 
	C86.333321,1.000010 171.666641,1.000010 257.000000,1.000005 
	C257.000000,46.333317 257.000000,91.666634 257.000000,136.999969 
	C233.500000,137.000000 210.000000,137.000000 186.000000,137.000000 
M42.126457,19.129257 
	C42.126457,19.129257 42.155144,19.245329 42.715176,19.064648 
	C42.939922,18.755318 43.164669,18.445986 43.890011,18.020821 
	C44.258347,17.676706 44.626682,17.332590 45.530212,16.937431 
	C45.754971,16.675570 45.979729,16.413708 46.106125,16.115488 
	C46.106125,16.115488 46.117126,16.219772 46.740372,16.136196 
	C47.226780,15.783863 47.713188,15.431532 48.616127,15.072465 
	C48.616127,15.072465 48.973961,14.859154 49.803799,14.895330 
	C56.146049,15.096136 62.488297,15.296941 68.316635,15.481475 
	C65.989563,10.683152 58.517010,9.001917 46.815937,11.682462 
	C46.212326,11.826317 45.608715,11.970173 44.290497,12.009709 
	C42.530998,12.708977 40.771500,13.408244 38.314674,14.124557 
	C37.572929,14.494060 36.815773,14.835762 36.091721,15.237181 
	C22.456312,22.796753 19.434597,37.993874 30.390518,49.017166 
	C36.947277,55.614246 45.267868,60.458271 53.065819,66.647087 
	C53.976425,67.459869 54.887032,68.272659 55.847095,69.691521 
	C55.826584,70.096260 55.806072,70.500999 55.206360,71.225914 
	C49.149269,79.407364 40.302681,85.749962 38.108105,96.746147 
	C37.279526,96.876381 36.133965,97.056427 34.144737,97.070854 
	C32.429901,97.052223 30.715063,97.033585 28.182894,96.926582 
	C27.338936,97.332253 26.494978,97.737923 25.318172,98.733688 
	C24.794573,99.430771 24.270973,100.127853 23.896824,100.913193 
	C23.896824,100.913193 23.791397,100.775314 23.307302,101.002983 
	C23.243172,101.337296 23.179043,101.671616 22.830252,102.614532 
	C22.732180,103.048843 22.634108,103.483147 22.169027,104.496933 
	C22.733234,106.419785 23.297441,108.342636 23.910444,110.951889 
	C27.601377,116.658119 33.569557,118.296982 39.600563,120.163048 
	C48.004501,122.763336 54.260109,119.024361 60.976879,113.998833 
	C73.907043,106.054703 77.387108,94.271500 74.865738,79.375504 
	C74.570641,78.585075 74.275536,77.794640 74.050476,76.316864 
	C73.730080,75.507774 73.409676,74.698685 73.011002,73.973541 
	C73.011002,73.973541 73.115135,73.925262 73.079872,73.202461 
	C70.726456,69.458000 68.373039,65.713531 65.997208,61.997925 
	C65.997208,61.997925 66.031219,61.985764 65.949272,61.447044 
	C65.677231,61.228203 65.405182,61.009365 65.094879,60.891994 
	C65.094879,60.891994 65.196289,60.853592 65.049599,60.187958 
	C60.658760,56.473316 56.267918,52.758671 51.557034,48.594185 
	C51.064209,48.380749 50.571384,48.167316 49.882481,47.524727 
	C49.667454,47.205479 49.389103,47.134514 48.314125,47.002014 
	C39.969387,44.061275 33.775028,40.151348 36.727383,29.706789 
	C37.349590,27.505615 38.302513,25.397926 39.605827,23.007376 
	C39.741016,22.673174 39.876205,22.338972 39.999390,22.000204 
	C39.999390,22.000204 40.007305,22.011557 40.523365,21.740870 
	C40.792606,21.234415 41.061852,20.727962 41.210972,20.179951 
	C41.210972,20.179951 41.253857,20.299610 41.761932,20.103716 
	C41.922302,19.787735 42.082672,19.471754 42.126457,19.129257 
M20.710732,71.065208 
	C20.931192,70.749146 21.151651,70.433083 21.747122,70.070107 
	C22.003691,69.954285 22.141201,69.755928 22.839190,69.173141 
	C29.871374,64.434982 37.936993,63.407333 42.919296,69.983170 
	C42.861813,77.239471 36.572712,77.213867 31.188387,79.248482 
	C35.740189,81.288620 38.997776,80.050331 41.824986,77.652466 
	C44.843311,75.092514 45.961948,71.787750 44.016865,67.272888 
	C37.177990,60.971867 30.744858,60.419754 21.326532,65.544060 
	C21.220684,65.684082 21.114834,65.824097 20.393009,66.033028 
	C20.105923,66.309494 19.818836,66.585960 19.211218,66.821945 
	C19.211218,66.821945 18.997902,67.064590 18.450018,67.077576 
	C18.243002,67.366890 18.035986,67.656197 17.211349,68.220055 
	C10.985304,75.579880 10.409418,84.749168 15.034348,89.059807 
	C16.268856,84.023430 17.627182,78.481918 19.469219,72.636803 
	C19.743694,72.144630 20.018171,71.652458 20.139664,71.128189 
	C20.139664,71.128189 20.165308,71.282387 20.710732,71.065208 
M88.367264,99.708473 
	C90.340202,99.596191 92.313141,99.483902 94.330872,99.324738 
	C94.330872,99.324738 94.394333,99.337990 94.974113,99.003891 
	C96.966667,96.375481 98.959221,93.747070 101.034630,92.014297 
	C101.034630,94.589127 101.034630,97.163956 101.034630,99.867981 
	C104.884399,99.867981 108.101517,99.867981 110.730042,99.867981 
	C110.205070,98.076294 109.266319,96.304794 109.234917,94.517357 
	C109.098846,86.771576 109.351364,79.018875 109.209091,71.273346 
	C109.135933,67.290932 108.530708,63.318295 108.407608,58.628689 
	C106.909729,51.003494 103.288208,48.007133 95.960320,48.446102 
	C95.241661,52.891918 102.826782,56.776978 96.363945,61.173138 
	C98.169937,61.971481 99.317406,62.478722 100.440987,63.836201 
	C101.468987,69.211327 97.443398,70.427338 93.770447,71.873413 
	C87.957291,74.162125 82.461433,76.730301 81.686417,84.163925 
	C81.686417,84.163925 81.751839,84.307579 81.233208,84.900497 
	C81.434372,86.145531 81.635536,87.390556 81.638382,89.087143 
	C81.650131,89.430313 81.768967,89.731178 81.888329,90.707748 
	C82.259865,91.808853 82.631409,92.909966 82.986877,94.606430 
	C83.287292,95.082108 83.587700,95.557777 84.046600,96.693108 
	C85.326279,97.519714 86.605949,98.346313 87.965263,99.060135 
	C87.965263,99.060135 87.846237,99.130104 88.367264,99.708473 
M186.313309,54.038002 
	C185.492523,54.988422 184.671753,55.938847 183.969345,56.976765 
	C183.969345,56.976765 183.882507,56.857922 183.285904,57.161121 
	C182.579086,58.782398 181.872269,60.403675 180.903030,62.434864 
	C180.748093,62.738289 180.712189,63.055199 180.226547,63.966145 
	C180.091354,65.294586 179.956146,66.623032 179.477341,68.390968 
	C179.438660,68.940300 179.399979,69.489624 179.098053,70.909950 
	C179.088104,73.942902 179.078156,76.975845 178.872528,80.660820 
	C178.923889,81.106903 178.975235,81.552994 178.820877,82.857712 
	C178.605286,98.276772 186.529205,100.980011 205.112015,99.784073 
	C204.703400,97.133835 203.945847,94.466087 203.936859,91.795807 
	C203.880905,75.172401 204.036865,58.548225 203.960358,41.925056 
	C203.954559,40.664474 202.692642,39.409676 201.268478,38.017513 
	C200.513687,38.055344 199.758896,38.093174 198.172012,37.975941 
	C196.754013,38.092045 195.336029,38.208153 193.918030,38.324257 
	C193.938797,38.749481 193.959564,39.174706 193.980316,39.599930 
	C194.987854,39.735027 195.995392,39.870129 197.241196,40.908813 
	C197.307495,43.657906 197.212540,46.423054 197.484283,49.151688 
	C197.770416,52.024948 196.136780,52.355053 193.221252,52.094585 
	C191.119934,52.708519 189.018600,53.322456 186.985703,53.999493 
	C186.985703,53.999493 186.944473,53.916077 186.313309,54.038002 
M238.827682,99.691818 
	C239.517761,96.459373 240.207825,93.226921 241.019379,89.237381 
	C235.994217,82.643631 228.796158,83.817200 221.831940,84.290260 
	C224.313370,76.603325 226.670746,69.300621 229.283859,61.799732 
	C229.283859,61.799732 229.231827,61.480415 229.696198,60.985729 
	C229.842224,60.099453 229.988251,59.213173 230.625778,57.900677 
	C230.729095,57.270493 230.832397,56.640308 231.222244,55.595165 
	C231.240738,55.428097 231.259232,55.261024 231.796524,54.616154 
	C233.788544,48.690132 235.780563,42.764111 237.914230,36.416687 
	C229.342087,36.416687 221.285034,36.416687 213.055573,36.416687 
	C212.725861,37.804214 212.404678,39.155861 211.993820,40.884869 
	C215.296753,40.667980 218.106323,40.273457 220.900833,40.360680 
	C223.549667,40.443356 226.182770,41.030922 228.811432,41.394882 
	C227.830444,45.310650 226.988647,48.670872 225.825684,52.713512 
	C221.140884,67.009079 216.456085,81.304642 211.771286,95.600204 
	C219.993423,88.097534 226.291077,86.389862 235.468170,90.629410 
	C235.771606,93.711594 236.075027,96.793785 235.982513,100.383354 
	C234.113586,104.048958 231.124619,105.753853 227.014511,106.061356 
	C225.263229,106.192383 223.583435,107.278976 221.287552,108.162560 
	C217.439545,107.734192 213.601639,107.128387 209.741760,106.908585 
	C194.159088,106.021255 178.569641,105.252953 162.169312,104.329315 
	C151.617554,105.550278 141.047150,106.634621 130.524582,108.069618 
	C127.052238,108.543159 123.703377,109.922142 120.298050,110.887115 
	C120.391289,111.120934 120.484520,111.354752 120.577751,111.588570 
	C134.064804,110.310692 147.551865,109.032806 161.917206,107.871643 
	C180.849594,108.585670 199.780945,109.331062 218.716095,109.962532 
	C220.500397,110.022034 222.308594,109.364830 224.899170,109.006126 
	C226.109879,108.691750 227.306931,108.183113 228.533691,108.096794 
	C233.708710,107.732651 236.652557,104.784714 238.827682,99.691818 
M132.287552,99.645927 
	C132.433838,99.455704 132.584991,99.269432 133.531052,99.115570 
	C133.794449,99.108215 134.057846,99.100853 134.760284,99.731918 
	C137.672043,99.731918 140.583786,99.731918 142.814667,99.731918 
	C142.518448,97.817085 141.992798,95.956474 141.981476,94.092751 
	C141.914856,83.131516 142.015717,72.169250 141.945999,61.208061 
	C141.929520,58.614452 141.475647,56.023617 140.739914,52.976391 
	C140.367416,52.652046 139.898071,52.391308 139.637024,51.993774 
	C135.973907,46.415524 135.453949,46.416740 131.540070,51.450680 
	C130.088211,53.318031 128.300735,54.924438 125.709610,57.659794 
	C125.709610,53.018234 125.709610,49.872452 125.709610,46.726665 
	C125.300301,46.573837 124.890999,46.421009 124.481689,46.268181 
	C122.743546,48.854763 121.005402,51.441345 119.054031,54.939972 
	C119.054031,69.908485 119.054031,84.876999 119.054031,99.672562 
	C121.569656,99.672562 124.915970,99.672562 128.262283,99.672562 
	C128.256943,99.485817 128.251602,99.299080 128.246262,99.112335 
	C127.601532,99.036194 126.956802,98.960045 126.293098,97.960106 
	C126.243088,87.903687 125.790482,77.824043 126.368561,67.803848 
	C126.562355,64.444817 129.383545,61.237358 130.944977,58.901726 
	C130.948944,71.561081 130.929794,84.220566 131.001617,96.879539 
	C131.007233,97.872223 131.647430,98.861313 132.287552,99.645927 
M162.645340,99.433075 
	C168.499924,96.317299 173.265457,91.790886 173.741669,85.116470 
	C174.450531,75.181389 174.129562,65.154900 173.876709,55.176689 
	C173.750076,50.179115 170.365906,46.320786 166.227859,46.084126 
	C161.121841,45.792099 155.986389,46.014317 150.558548,46.014317 
	C150.558548,64.179153 150.558548,81.875832 150.558548,99.955482 
	C151.824921,99.955482 153.414963,99.955482 155.876129,100.106201 
	C157.915237,99.935226 159.954330,99.764244 162.645340,99.433075 
M79.149879,127.899010 
	C91.554123,128.622955 102.814720,121.159424 101.296593,113.220177 
	C87.849640,125.753349 81.989326,127.812180 73.457001,123.000717 
	C73.205704,123.394531 72.954407,123.788338 72.703110,124.182152 
	C74.586845,125.334274 76.470581,126.486397 79.149879,127.899010 
M64.502480,29.014547 
	C58.675396,32.390259 52.848316,35.765972 47.243771,39.012768 
	C48.306202,39.012768 49.931023,39.123631 51.536201,38.993065 
	C57.616909,38.498447 62.722717,36.042774 66.377258,31.061466 
	C66.913742,30.330210 66.695679,29.045376 66.826744,28.016678 
	C66.241516,28.214491 65.656281,28.412302 64.502480,29.014547 
M51.847198,24.062002 
	C57.204552,24.062002 62.561905,24.062002 67.703529,24.062002 
	C64.909286,19.125292 53.266926,18.196280 49.489223,23.013664 
	C50.002316,23.353415 50.515404,23.693163 51.847198,24.062002 
z"/>
<path fill="#7F1425" opacity="1.000000" stroke="none" 
	d="
M155.004990,99.955482 
	C153.414963,99.955482 151.824921,99.955482 150.558548,99.955482 
	C150.558548,81.875832 150.558548,64.179153 150.558548,46.014317 
	C155.986389,46.014317 161.121841,45.792099 166.227859,46.084126 
	C170.365906,46.320786 173.750076,50.179115 173.876709,55.176689 
	C174.129562,65.154900 174.450531,75.181389 173.741669,85.116470 
	C173.265457,91.790886 168.499924,96.317299 162.262955,99.197083 
	C161.581604,97.722382 161.282639,96.483681 161.288391,95.158493 
	C162.097626,94.469231 162.602142,93.866463 163.434555,93.149551 
	C164.558105,92.047920 165.353760,91.060425 166.434464,89.757767 
	C166.879089,78.526375 167.140167,67.610199 167.144409,56.693920 
	C167.145950,52.753178 162.324814,48.980995 157.777618,49.069759 
	C157.185760,49.218018 157.028198,49.480347 157.038437,50.333714 
	C157.006424,59.540401 156.996185,68.269882 156.636383,76.964081 
	C155.258774,77.076851 154.230774,77.224915 153.202759,77.372978 
	C154.463501,77.915421 155.724228,78.457863 156.988708,79.467445 
	C156.329971,86.608215 155.667480,93.281853 155.004990,99.955482 
z"/>
<path fill="#791221" opacity="1.000000" stroke="none" 
	d="
M45.005104,12.114030 
	C45.608715,11.970173 46.212326,11.826317 47.455894,11.891039 
	C48.388554,13.019462 48.681259,13.939307 48.973961,14.859154 
	C48.973961,14.859154 48.616127,15.072465 48.078121,15.069039 
	C47.065784,15.450334 46.591457,15.835052 46.117126,16.219772 
	C46.117126,16.219772 46.106125,16.115488 45.895180,16.171619 
	C45.454498,16.481323 45.224758,16.734900 44.995018,16.988476 
	C44.626682,17.332590 44.258347,17.676706 43.342194,18.141956 
	C42.581299,18.590502 42.368221,18.917915 42.155144,19.245329 
	C42.155144,19.245329 42.126457,19.129257 41.911781,19.220032 
	C41.549355,19.640406 41.401604,19.970009 41.253857,20.299610 
	C41.253857,20.299610 41.210972,20.179951 40.962826,20.268166 
	C40.478889,20.908108 40.243095,21.459831 40.007305,22.011557 
	C40.007305,22.011557 39.999390,22.000204 39.770206,22.139736 
	C39.395031,22.601900 39.249039,22.924530 39.103046,23.247160 
	C38.302513,25.397926 37.349590,27.505615 36.727383,29.706789 
	C33.775028,40.151348 39.969387,44.061275 48.808250,47.326057 
	C49.524433,47.845039 49.783161,47.946301 50.078560,47.953880 
	C50.571384,48.167316 51.064209,48.380749 51.425621,48.943672 
	C50.045116,49.462349 48.314056,49.199448 47.673370,49.914085 
	C46.933067,50.739841 46.548298,53.233124 47.052834,53.611794 
	C50.937862,56.527626 54.043697,61.256161 59.995323,60.370461 
	C58.994316,62.495564 57.992699,64.250854 56.571404,66.004486 
	C55.033031,66.031967 53.914341,66.061111 52.795650,66.090263 
	C45.267868,60.458271 36.947277,55.614246 30.390518,49.017166 
	C19.434597,37.993874 22.456312,22.796753 36.091721,15.237181 
	C36.815773,14.835762 37.572929,14.494060 38.888802,14.350177 
	C41.310322,13.755207 43.157715,12.934619 45.005104,12.114030 
z"/>
<path fill="#801020" opacity="1.000000" stroke="none" 
	d="
M199.004105,38.131004 
	C199.758896,38.093174 200.513687,38.055344 201.809296,38.414490 
	C202.568527,43.187668 203.004257,47.566456 202.952362,51.939453 
	C202.881668,57.895569 202.187607,63.848454 202.215652,69.800583 
	C202.255890,78.343155 202.820297,86.883408 202.849716,95.425728 
	C202.853790,96.607605 201.286102,98.460136 200.081390,98.837234 
	C197.834686,99.540504 195.702896,98.890038 196.119202,95.381821 
	C196.344559,82.723709 196.344559,70.406853 196.344559,56.742611 
	C193.318512,58.333775 190.732986,59.693306 187.873505,61.213501 
	C187.458191,61.762718 187.316818,62.151268 187.202576,62.677277 
	C187.229675,62.814732 187.007858,62.985947 186.732452,63.247826 
	C186.421600,64.250618 186.386154,64.991524 186.410782,66.021454 
	C186.309845,66.875420 186.148819,67.440353 185.824554,68.087189 
	C185.598785,68.272232 185.458450,68.424591 185.487167,68.469978 
	C185.609268,68.662956 185.781464,68.824249 185.989853,69.328300 
	C185.980865,70.100258 185.917419,70.541023 185.609314,71.244659 
	C184.708191,73.798370 184.051712,76.089218 183.395233,78.380058 
	C182.975311,78.516464 182.555405,78.652870 182.135498,78.789276 
	C181.424744,77.480026 180.494751,76.238716 180.062241,74.843231 
	C179.588928,73.316086 179.575272,71.646477 179.361298,70.038956 
	C179.399979,69.489624 179.438660,68.940300 179.978333,67.929535 
	C180.584656,66.107262 180.689987,64.746429 180.795334,63.385597 
	C180.712189,63.055199 180.748093,62.738289 181.393311,62.168381 
	C182.549896,60.220570 183.216202,58.539246 183.882507,56.857925 
	C183.882507,56.857922 183.969345,56.976765 184.265198,56.935040 
	C185.355515,55.900902 186.149994,54.908489 186.944473,53.916077 
	C186.944473,53.916077 186.985703,53.999493 187.336914,53.991886 
	C189.784790,53.419334 191.881439,52.854389 193.978104,52.289444 
	C196.136780,52.355053 197.770416,52.024948 197.484283,49.151688 
	C197.212540,46.423054 197.307495,43.657906 197.382172,40.350567 
	C198.016800,39.238548 198.510452,38.684776 199.004105,38.131004 
z"/>
<path fill="#7D1827" opacity="1.000000" stroke="none" 
	d="
M34.988407,97.236481 
	C36.133965,97.056427 37.279526,96.876381 38.108105,96.746147 
	C40.302681,85.749962 49.149269,79.407364 55.808643,71.203148 
	C57.301743,72.185066 58.192562,73.189758 59.076103,74.545944 
	C57.726391,76.975143 56.383953,79.052834 54.753845,81.232529 
	C53.657253,82.224434 52.848328,83.114342 51.695404,84.325699 
	C52.236595,85.089439 53.121792,85.531738 54.028931,86.239929 
	C54.106068,86.674911 54.161259,86.843994 54.136406,87.238525 
	C54.056362,87.463966 53.976158,87.935654 53.722015,88.007469 
	C53.390636,88.380890 53.313400,88.682503 53.102837,89.313995 
	C51.140972,92.066986 49.729939,95.070824 47.376003,96.763123 
	C44.566879,98.782684 44.640797,100.858856 45.468220,103.465683 
	C45.958244,105.009537 46.652718,106.488487 47.198425,108.354141 
	C47.105778,109.188225 47.069962,109.664780 46.703606,110.018097 
	C43.716736,107.238274 41.060406,104.581703 38.404079,101.925125 
	C38.528351,101.253899 38.652626,100.582672 38.776901,99.911446 
	C34.422764,101.262856 30.068623,102.614258 25.317270,103.969986 
	C24.125381,103.955353 23.330709,103.936409 22.536036,103.917458 
	C22.634108,103.483147 22.732180,103.048843 23.174498,102.160950 
	C23.609629,101.396675 23.700512,101.085999 23.791397,100.775314 
	C23.791397,100.775314 23.896824,100.913193 24.110214,100.824554 
	C24.766073,99.871803 25.208544,99.007698 25.651016,98.143585 
	C26.494978,97.737923 27.338936,97.332253 28.839188,97.232056 
	C31.326456,97.437180 33.157433,97.336830 34.988407,97.236481 
M51.384830,86.272446 
	C51.022720,86.253860 50.660606,86.235275 50.298500,86.216690 
	C50.294327,86.600060 50.290154,86.983421 50.285980,87.366798 
	C50.603481,87.268333 50.920979,87.169868 51.384830,86.272446 
z"/>
<path fill="#7B1425" opacity="1.000000" stroke="none" 
	d="
M119.267258,54.027927 
	C121.005402,51.441345 122.743546,48.854763 124.481689,46.268181 
	C124.890999,46.421009 125.300301,46.573837 125.709610,46.726665 
	C125.709610,49.872452 125.709610,53.018234 125.709610,57.659794 
	C128.300735,54.924438 130.088211,53.318031 131.540070,51.450680 
	C135.453949,46.416740 135.973907,46.415524 139.637024,51.993774 
	C139.898071,52.391308 140.367416,52.652046 140.907974,53.691677 
	C141.032257,57.267067 140.988495,60.127167 140.684784,62.740410 
	C140.082184,61.129562 139.739548,59.765572 139.290161,57.976639 
	C138.437180,58.638596 137.543182,59.003521 137.535629,59.385983 
	C137.300720,71.263069 137.152405,83.141869 136.777649,95.012436 
	C136.564545,95.004463 136.138733,94.979836 136.079193,94.515839 
	C135.939850,82.447777 135.880432,70.843498 135.754608,59.239944 
	C135.738800,57.783180 135.372681,56.330212 135.168884,54.875484 
	C134.401627,55.220535 133.634369,55.565586 132.572662,56.007759 
	C131.853409,56.723461 131.428604,57.342037 131.003784,57.960617 
	C129.383545,61.237358 126.562355,64.444817 126.368561,67.803848 
	C125.790482,77.824043 126.243088,87.903687 125.882530,98.451294 
	C123.137558,98.910347 120.376160,99.667473 120.353592,96.026611 
	C121.823479,96.516151 122.953842,96.968796 124.998215,97.787445 
	C124.998215,91.935707 124.860672,86.827660 125.042381,81.731003 
	C125.183884,77.761940 123.707123,76.512360 119.998428,77.538940 
	C119.751251,69.389191 119.509254,61.708557 119.267258,54.027927 
z"/>
<path fill="#781727" opacity="1.000000" stroke="none" 
	d="
M229.028137,61.997921 
	C226.670746,69.300621 224.313370,76.603325 221.831940,84.290260 
	C228.796158,83.817200 235.994217,82.643631 240.546997,89.618866 
	C238.428299,89.984779 236.781967,89.969215 235.135635,89.953651 
	C226.291077,86.389862 219.993423,88.097534 211.771286,95.600204 
	C216.456085,81.304642 221.140884,67.009079 226.274582,52.528553 
	C228.241577,53.260376 229.759659,54.177158 231.277740,55.093948 
	C231.259232,55.261024 231.240738,55.428097 230.830185,56.015511 
	C230.336853,57.066200 230.235565,57.696548 230.134277,58.326893 
	C229.988251,59.213173 229.842224,60.099453 229.295044,60.927002 
	C228.122391,60.732616 227.350906,60.596954 226.579422,60.461292 
	C226.543533,60.809708 226.507660,61.158127 226.471786,61.506546 
	C227.323898,61.670338 228.176025,61.834129 229.028137,61.997921 
M226.483948,57.579960 
	C226.483948,57.579960 226.425690,57.478714 226.483948,57.579960 
z"/>
<path fill="#821325" opacity="1.000000" stroke="none" 
	d="
M100.464882,62.985970 
	C99.317406,62.478722 98.169937,61.971481 96.363945,61.173138 
	C102.826782,56.776978 95.241661,52.891918 95.960320,48.446102 
	C103.288208,48.007133 106.909729,51.003494 108.239273,59.501122 
	C108.047043,71.795601 107.908958,83.219086 108.052605,94.639030 
	C108.114449,99.556023 105.838470,99.568893 103.209900,98.675568 
	C102.609222,94.222672 102.112434,90.539940 101.650665,86.537094 
	C101.823982,85.812607 101.962273,85.408241 102.476700,84.909027 
	C104.255737,81.728302 105.449219,78.659645 102.024208,75.752167 
	C101.815742,74.761368 101.707588,73.981171 101.910889,72.990707 
	C101.636528,69.515610 101.050705,66.250793 100.464882,62.985970 
z"/>
<path fill="#810C1E" opacity="1.000000" stroke="none" 
	d="
M59.083382,74.194443 
	C58.192562,73.189758 57.301743,72.185066 56.098244,71.043060 
	C55.806072,70.500999 55.826584,70.096260 56.099846,69.279945 
	C57.892262,68.210274 58.968887,67.448891 56.991081,66.006142 
	C57.992699,64.250854 58.994316,62.495564 60.207809,60.174206 
	C62.011887,60.023289 63.604088,60.438442 65.196289,60.853592 
	C65.196289,60.853592 65.094879,60.891994 65.164795,61.103615 
	C65.500214,61.538746 65.765717,61.762253 66.031219,61.985764 
	C66.031219,61.985764 65.997208,61.997925 65.997482,62.382271 
	C66.153114,65.605621 66.308464,68.444626 66.470428,71.404495 
	C68.656799,72.233925 70.885971,73.079590 73.115135,73.925262 
	C73.115135,73.925262 73.011002,73.973541 73.015366,74.278473 
	C73.339966,75.390335 73.660194,76.197273 73.980431,77.004211 
	C74.275536,77.794640 74.570641,78.585075 74.580780,80.022263 
	C74.201561,82.476944 74.316765,84.326599 73.966713,86.083565 
	C73.356102,89.148354 72.647919,92.226250 71.564026,95.143875 
	C71.248833,95.992317 69.516304,96.314224 68.433479,96.877502 
	C68.004219,95.944893 67.318977,95.046272 67.189835,94.073807 
	C66.617569,89.764359 66.250290,85.427368 65.646629,81.123085 
	C65.599457,80.786766 64.303963,80.625526 63.592850,80.363983 
	C63.597054,80.345047 63.581573,80.309868 63.648487,80.057526 
	C63.519577,79.530891 63.323753,79.256607 63.016457,78.815056 
	C62.904991,78.647789 62.904011,78.245781 62.919487,77.913284 
	C62.575001,77.074387 62.215042,76.567986 61.901871,76.055817 
	C61.948654,76.050056 61.897423,76.129204 61.902306,75.792099 
	C61.476486,75.015366 61.045784,74.575722 60.357807,74.153488 
	C59.761486,74.178741 59.422432,74.186592 59.083382,74.194443 
z"/>
<path fill="#7E1F2F" opacity="1.000000" stroke="none" 
	d="
M63.588646,80.382919 
	C64.303963,80.625526 65.599457,80.786766 65.646629,81.123085 
	C66.250290,85.427368 66.617569,89.764359 67.189835,94.073807 
	C67.318977,95.046272 68.004219,95.944893 68.433479,96.877502 
	C69.516304,96.314224 71.248833,95.992317 71.564026,95.143875 
	C72.647919,92.226250 73.356102,89.148354 73.966713,86.083565 
	C74.316765,84.326599 74.201561,82.476944 74.539017,80.342651 
	C77.387108,94.271500 73.907043,106.054703 60.254440,113.979240 
	C58.863365,113.194496 58.194725,112.429344 57.538109,111.676331 
	C57.550140,111.688469 57.576370,111.667992 57.888527,111.650482 
	C58.473286,111.109009 58.745892,110.585037 59.083225,109.807060 
	C59.431656,109.367706 59.715363,109.182343 60.223053,108.878540 
	C60.622192,108.477394 60.797344,108.194695 61.054810,107.561569 
	C62.609924,102.213997 64.298935,97.263458 65.393562,92.184799 
	C65.646545,91.011078 63.866535,89.399178 62.894470,87.721458 
	C62.732697,87.259453 62.698498,87.064888 63.026699,86.925194 
	C63.455612,84.781013 63.522129,82.581963 63.588646,80.382919 
z"/>
<path fill="#7D2D3A" opacity="1.000000" stroke="none" 
	d="
M224.105698,109.040390 
	C222.308594,109.364830 220.500397,110.022034 218.716095,109.962532 
	C199.780945,109.331062 180.849594,108.585670 161.673035,107.590546 
	C161.946808,106.353210 162.464752,105.396957 162.982697,104.440704 
	C178.569641,105.252953 194.159088,106.021255 209.741760,106.908585 
	C213.601639,107.128387 217.439545,107.734192 221.868134,108.166534 
	C223.001053,108.460472 223.553375,108.750435 224.105698,109.040390 
z"/>
<path fill="#802230" opacity="1.000000" stroke="none" 
	d="
M231.537140,54.855049 
	C229.759659,54.177158 228.241577,53.260376 226.435150,52.187347 
	C226.988647,48.670872 227.830444,45.310650 228.811432,41.394882 
	C226.182770,41.030922 223.549667,40.443356 220.900833,40.360680 
	C218.106323,40.273457 215.296753,40.667980 211.993820,40.884869 
	C212.404678,39.155861 212.725861,37.804214 213.055573,36.416687 
	C221.285034,36.416687 229.342087,36.416687 237.914230,36.416687 
	C235.780563,42.764111 233.788544,48.690132 231.537140,54.855049 
M234.227402,41.703068 
	C234.127136,40.547752 234.026855,39.392433 233.926590,38.237118 
	C233.043579,38.468868 231.529388,38.504040 231.385529,38.965984 
	C230.720383,41.101757 230.436249,43.356190 230.015594,45.568100 
	C230.603317,45.768566 231.191040,45.969032 231.778763,46.169498 
	C232.528625,44.932976 233.278473,43.696453 234.227402,41.703068 
z"/>
<path fill="#7C202E" opacity="1.000000" stroke="none" 
	d="
M195.893829,95.723083 
	C195.702896,98.890038 197.834686,99.540504 200.081390,98.837234 
	C201.286102,98.460136 202.853790,96.607605 202.849716,95.425728 
	C202.820297,86.883408 202.255890,78.343155 202.215652,69.800583 
	C202.187607,63.848454 202.881668,57.895569 202.952362,51.939453 
	C203.004257,47.566456 202.568527,43.187668 202.182373,38.481827 
	C202.692642,39.409676 203.954559,40.664474 203.960358,41.925056 
	C204.036865,58.548225 203.880905,75.172401 203.936859,91.795807 
	C203.945847,94.466087 204.703400,97.133835 205.112015,99.784073 
	C186.529205,100.980011 178.605286,98.276772 179.197998,82.691246 
	C180.158524,87.668770 181.506912,92.431915 186.303497,96.258263 
	C186.620544,94.785965 186.812622,93.894012 187.300354,93.207802 
	C190.361954,94.183388 193.127884,94.953232 195.893829,95.723083 
z"/>
<path fill="#F2E4E7" opacity="1.000000" stroke="none" 
	d="
M132.867126,55.910637 
	C133.634369,55.565586 134.401627,55.220535 135.168884,54.875484 
	C135.372681,56.330212 135.738800,57.783180 135.754608,59.239944 
	C135.880432,70.843498 135.939850,82.447777 135.989044,94.858597 
	C135.412735,96.808067 134.867004,97.950775 134.321259,99.093483 
	C134.057846,99.100853 133.794449,99.108215 132.916885,99.092949 
	C132.302719,99.070328 132.000046,98.752396 132.086731,98.310638 
	C132.404648,83.882797 132.635880,69.896713 132.867126,55.910637 
z"/>
<path fill="#7A2230" opacity="1.000000" stroke="none" 
	d="
M57.526081,111.664192 
	C58.194725,112.429344 58.863365,113.194496 59.924412,114.039673 
	C54.260109,119.024361 48.004501,122.763336 39.600563,120.163048 
	C33.569557,118.296982 27.601377,116.658119 24.008568,110.323288 
	C24.692940,109.133484 25.279186,108.572273 26.004629,108.300896 
	C26.745432,109.400085 27.347038,110.209442 28.019983,111.264999 
	C28.385622,111.598175 28.679924,111.685150 29.335081,111.910751 
	C34.121578,113.056335 38.547222,114.063301 42.970798,115.341858 
	C43.321098,116.029190 43.673462,116.444916 44.439827,116.964783 
	C50.279568,118.084831 53.893841,114.853447 57.526081,111.664192 
z"/>
<path fill="#7B1828" opacity="1.000000" stroke="none" 
	d="
M100.452934,63.411087 
	C101.050705,66.250793 101.636528,69.515610 101.622734,73.120209 
	C99.993034,74.795662 98.962944,76.131340 97.673615,77.413780 
	C97.266174,77.264824 97.117966,77.169090 96.989960,77.052719 
	C97.010155,77.032082 96.952866,77.024651 96.964584,76.773941 
	C96.595093,76.656380 96.213875,76.789543 95.486038,76.970184 
	C91.887299,78.298241 89.365471,80.238777 88.630936,83.989944 
	C88.419403,83.994255 87.996460,84.007629 87.993340,83.614304 
	C87.694267,82.155296 87.398308,81.089607 87.167999,80.260284 
	C84.960571,81.763367 83.312653,82.885468 81.664734,84.007568 
	C82.461433,76.730301 87.957291,74.162125 93.770447,71.873413 
	C97.443398,70.427338 101.468987,69.211327 100.452934,63.411087 
z"/>
<path fill="#70222F" opacity="1.000000" stroke="none" 
	d="
M162.576004,104.385010 
	C162.464752,105.396957 161.946808,106.353210 161.233887,107.532196 
	C147.551865,109.032806 134.064804,110.310692 120.577751,111.588570 
	C120.484520,111.354752 120.391289,111.120934 120.298050,110.887115 
	C123.703377,109.922142 127.052238,108.543159 130.524582,108.069618 
	C141.047150,106.634621 151.617554,105.550278 162.576004,104.385010 
z"/>
<path fill="#782733" opacity="1.000000" stroke="none" 
	d="
M78.752106,127.768761 
	C76.470581,126.486397 74.586845,125.334274 72.703110,124.182152 
	C72.954407,123.788338 73.205704,123.394531 73.457001,123.000717 
	C81.989326,127.812180 87.849640,125.753349 101.296593,113.220177 
	C102.814720,121.159424 91.554123,128.622955 78.752106,127.768761 
z"/>
<path fill="#7D1827" opacity="1.000000" stroke="none" 
	d="
M65.122940,60.520775 
	C63.604088,60.438442 62.011887,60.023289 60.207199,59.804390 
	C54.043697,61.256161 50.937862,56.527626 47.052834,53.611794 
	C46.548298,53.233124 46.933067,50.739841 47.673370,49.914085 
	C48.314056,49.199448 50.045116,49.462349 51.585644,49.168591 
	C56.267918,52.758671 60.658760,56.473316 65.122940,60.520775 
z"/>
<path fill="#8C1A2B" opacity="1.000000" stroke="none" 
	d="
M81.675575,84.085747 
	C83.312653,82.885468 84.960571,81.763367 87.167999,80.260284 
	C87.398308,81.089607 87.694267,82.155296 88.005402,83.892441 
	C88.267967,85.039413 88.515350,85.514915 88.818909,86.390419 
	C88.832191,87.864891 88.789291,88.939369 88.562973,90.185066 
	C88.559937,90.904465 88.740326,91.452644 89.020950,92.163589 
	C89.121185,92.326363 89.102089,92.708206 89.157715,92.982552 
	C89.482010,93.504082 89.750694,93.751266 90.258377,94.083664 
	C90.965584,94.339394 91.433784,94.509911 91.970078,95.056267 
	C92.823555,96.734070 93.608948,98.036026 94.394333,99.337990 
	C94.394333,99.337990 94.330872,99.324738 93.855057,99.232452 
	C91.534904,99.136818 89.690567,99.133461 87.846237,99.130104 
	C87.846237,99.130104 87.965263,99.060135 87.923790,98.742401 
	C86.550911,97.627594 85.219513,96.830521 83.888107,96.033455 
	C83.587700,95.557777 83.287292,95.082108 83.006256,93.940941 
	C82.682053,92.180214 82.338470,91.084969 81.994896,89.989731 
	C81.768967,89.731178 81.650131,89.430313 81.786682,88.319305 
	C81.873940,86.470169 81.812889,85.388870 81.751839,84.307579 
	C81.751839,84.307579 81.686417,84.163925 81.675575,84.085747 
z"/>
<path fill="#7B1E2B" opacity="1.000000" stroke="none" 
	d="
M21.008986,65.964111 
	C21.114834,65.824097 21.220684,65.684082 21.624071,65.968781 
	C22.000956,67.420677 22.080301,68.447853 22.159649,69.475037 
	C22.141201,69.755928 22.003691,69.954285 21.266958,70.176849 
	C20.579632,70.616524 20.372469,70.949455 20.165308,71.282387 
	C20.165308,71.282387 20.139664,71.128189 19.920841,71.228149 
	C19.463182,71.865547 19.224346,72.402977 18.985510,72.940407 
	C17.627182,78.481918 16.268856,84.023430 15.034348,89.059807 
	C10.409418,84.749168 10.985304,75.579880 17.764040,68.009430 
	C18.543789,67.554062 18.770845,67.309326 18.997902,67.064590 
	C18.997902,67.064590 19.211218,66.821945 19.672161,66.794983 
	C20.425064,66.500046 20.717024,66.232079 21.008986,65.964111 
z"/>
<path fill="#7B1828" opacity="1.000000" stroke="none" 
	d="
M101.615646,86.857216 
	C102.112434,90.539940 102.609222,94.222672 103.209900,98.675568 
	C105.838470,99.568893 108.114449,99.556023 108.052605,94.639030 
	C107.908958,83.219086 108.047043,71.795601 108.118423,59.857399 
	C108.530708,63.318295 109.135933,67.290932 109.209091,71.273346 
	C109.351364,79.018875 109.098846,86.771576 109.234917,94.517357 
	C109.266319,96.304794 110.205070,98.076294 110.730042,99.867981 
	C108.101517,99.867981 104.884399,99.867981 101.034630,99.867981 
	C101.034630,97.163956 101.034630,94.589127 100.987625,91.222687 
	C100.918068,90.202965 100.895500,89.974846 100.872025,89.436676 
	C101.119293,88.370148 101.367470,87.613686 101.615646,86.857216 
z"/>
<path fill="#71212F" opacity="1.000000" stroke="none" 
	d="
M22.499420,69.324089 
	C22.080301,68.447853 22.000956,67.420677 21.872227,65.880814 
	C30.744858,60.419754 37.177990,60.971867 43.878448,67.733643 
	C43.463669,68.540565 43.187313,68.886734 42.910957,69.232903 
	C37.936993,63.407333 29.871374,64.434982 22.499420,69.324089 
z"/>
<path fill="#68151E" opacity="1.000000" stroke="none" 
	d="
M156.985962,76.999367 
	C156.996185,68.269882 157.006424,59.540401 157.264679,50.394619 
	C157.512726,49.978321 157.971069,50.077103 157.993790,50.517368 
	C158.029922,57.630795 158.043335,64.303955 157.956665,71.433823 
	C157.917206,76.267914 157.977859,80.645294 158.021851,85.465866 
	C158.059372,88.273705 158.113556,90.638367 158.096146,93.335342 
	C158.071640,94.115929 158.118729,94.564209 158.098633,95.298843 
	C158.578415,95.702255 159.125381,95.819305 159.847046,95.715744 
	C160.342377,95.411743 160.663010,95.328362 160.983658,95.244980 
	C161.282639,96.483681 161.581604,97.722382 161.937012,99.277176 
	C159.954330,99.764244 157.915237,99.935226 155.440552,100.030838 
	C155.667480,93.281853 156.329971,86.608215 156.993591,79.133972 
	C156.991791,77.888695 156.988876,77.444031 156.985962,76.999367 
z"/>
<path fill="#78293B" opacity="1.000000" stroke="none" 
	d="
M64.786766,28.812332 
	C65.656281,28.412302 66.241516,28.214491 66.826744,28.016678 
	C66.695679,29.045376 66.913742,30.330210 66.377258,31.061466 
	C62.722717,36.042774 57.616909,38.498447 51.536201,38.993065 
	C49.931023,39.123631 48.306202,39.012768 47.243771,39.012768 
	C52.848316,35.765972 58.675396,32.390259 64.786766,28.812332 
z"/>
<path fill="#782630" opacity="1.000000" stroke="none" 
	d="
M49.388878,14.877242 
	C48.681259,13.939307 48.388554,13.019462 47.766624,11.906101 
	C58.517010,9.001917 65.989563,10.683152 68.316635,15.481475 
	C62.488297,15.296941 56.146049,15.096136 49.388878,14.877242 
z"/>
<path fill="#A8737D" opacity="1.000000" stroke="none" 
	d="
M132.572662,56.007759 
	C132.635880,69.896713 132.404648,83.882797 132.173553,98.587128 
	C132.113358,99.487602 132.053024,99.669838 131.992691,99.852074 
	C131.647430,98.861313 131.007233,97.872223 131.001617,96.879539 
	C130.929794,84.220566 130.948944,71.561081 130.974396,58.431171 
	C131.428604,57.342037 131.853409,56.723461 132.572662,56.007759 
z"/>
<path fill="#801020" opacity="1.000000" stroke="none" 
	d="
M187.004700,93.002068 
	C186.812622,93.894012 186.620544,94.785965 186.303497,96.258263 
	C181.506912,92.431915 180.158524,87.668770 179.300842,82.261932 
	C178.975235,81.552994 178.923889,81.106903 179.380432,80.331131 
	C183.582291,79.515701 184.884171,81.443321 185.023193,84.841728 
	C185.094009,86.572762 185.605255,88.285774 186.028198,90.212700 
	C186.291183,90.707794 186.330444,91.011719 186.247192,91.656685 
	C186.492020,92.320099 186.746414,92.657051 187.000519,92.996849 
	C187.000198,92.999695 187.004700,93.002068 187.004700,93.002068 
z"/>
<path fill="#7C3240" opacity="1.000000" stroke="none" 
	d="
M134.540771,99.412704 
	C134.867004,97.950775 135.412735,96.808067 136.048599,95.322601 
	C136.138733,94.979836 136.564545,95.004463 136.776611,95.399971 
	C137.990921,96.833458 138.993149,97.871429 140.307602,98.641708 
	C140.719513,88.924660 140.819199,79.475304 140.934891,69.586685 
	C140.948853,67.094032 140.946793,65.040649 140.944733,62.987270 
	C140.988495,60.127167 141.032257,57.267067 141.149506,53.919235 
	C141.475647,56.023617 141.929520,58.614452 141.945999,61.208061 
	C142.015717,72.169250 141.914856,83.131516 141.981476,94.092751 
	C141.992798,95.956474 142.518448,97.817085 142.814667,99.731918 
	C140.583786,99.731918 137.672043,99.731918 134.540771,99.412704 
z"/>
<path fill="#732831" opacity="1.000000" stroke="none" 
	d="
M119.160645,54.483948 
	C119.509254,61.708557 119.751251,69.389191 119.996536,78.005966 
	C120.004578,84.624641 120.009323,90.307175 120.014069,95.989708 
	C120.376160,99.667473 123.137558,98.910347 125.892021,98.913193 
	C126.956802,98.960045 127.601532,99.036194 128.246262,99.112335 
	C128.251602,99.299080 128.256943,99.485817 128.262283,99.672562 
	C124.915970,99.672562 121.569656,99.672562 119.054031,99.672562 
	C119.054031,84.876999 119.054031,69.908485 119.160645,54.483948 
z"/>
<path fill="#782632" opacity="1.000000" stroke="none" 
	d="
M51.437847,24.047459 
	C50.515404,23.693163 50.002316,23.353415 49.489223,23.013664 
	C53.266926,18.196280 64.909286,19.125292 67.703529,24.062002 
	C62.561905,24.062002 57.204552,24.062002 51.437847,24.047459 
z"/>
<path fill="#7E3B49" opacity="1.000000" stroke="none" 
	d="
M42.915123,69.608032 
	C43.187313,68.886734 43.463669,68.540565 44.042412,68.049088 
	C45.961948,71.787750 44.843311,75.092514 41.824986,77.652466 
	C38.997776,80.050331 35.740189,81.288620 31.188387,79.248482 
	C36.572712,77.213867 42.861813,77.239471 42.915123,69.608032 
z"/>
<path fill="#7C202E" opacity="1.000000" stroke="none" 
	d="
M185.917404,90.006935 
	C185.605255,88.285774 185.094009,86.572762 185.023193,84.841728 
	C184.884171,81.443321 183.582291,79.515701 179.478271,80.005112 
	C179.078156,76.975845 179.088104,73.942902 179.229675,70.474457 
	C179.575272,71.646477 179.588928,73.316086 180.062241,74.843231 
	C180.494751,76.238716 181.424744,77.480026 182.135498,78.789276 
	C182.555405,78.652870 182.975311,78.516464 183.395233,78.380058 
	C184.051712,76.089218 184.708191,73.798370 185.674927,71.710541 
	C185.962585,77.944679 185.939987,83.975807 185.917404,90.006935 
z"/>
<path fill="#883D46" opacity="1.000000" stroke="none" 
	d="
M224.502441,109.023254 
	C223.553375,108.750435 223.001053,108.460472 222.159943,108.050919 
	C223.583435,107.278976 225.263229,106.192383 227.014511,106.061356 
	C231.124619,105.753853 234.113586,104.048958 236.631546,100.182892 
	C237.581268,100.016449 237.881958,100.050461 238.182648,100.084480 
	C236.652557,104.784714 233.708710,107.732651 228.533691,108.096794 
	C227.306931,108.183113 226.109879,108.691750 224.502441,109.023254 
z"/>
<path fill="#822835" opacity="1.000000" stroke="none" 
	d="
M100.872940,89.746735 
	C100.895500,89.974846 100.918068,90.202965 100.946198,90.774872 
	C98.959221,93.747070 96.966667,96.375481 94.684219,99.170944 
	C93.608948,98.036026 92.823555,96.734070 92.155060,94.785858 
	C93.782600,92.490463 95.293243,90.841316 96.938812,89.044868 
	C98.086685,89.249657 99.479813,89.498192 100.872940,89.746735 
z"/>
<path fill="#7D1827" opacity="1.000000" stroke="none" 
	d="
M73.097504,73.563858 
	C70.885971,73.079590 68.656799,72.233925 66.470428,71.404495 
	C66.308464,68.444626 66.153114,65.605621 66.008698,62.367844 
	C68.373039,65.713531 70.726456,69.458000 73.097504,73.563858 
z"/>
<path fill="#7C212F" opacity="1.000000" stroke="none" 
	d="
M238.505157,99.888153 
	C237.881958,100.050461 237.581268,100.016449 236.829514,99.929199 
	C236.075027,96.793785 235.771606,93.711594 235.301910,90.291534 
	C236.781967,89.969215 238.428299,89.984779 240.486267,89.997406 
	C240.207825,93.226921 239.517761,96.459373 238.505157,99.888153 
z"/>
<path fill="#822E3E" opacity="1.000000" stroke="none" 
	d="
M25.865431,108.011063 
	C25.279186,108.572273 24.692940,109.133484 23.984169,109.980087 
	C23.297441,108.342636 22.733234,106.419785 22.352531,104.207199 
	C23.330709,103.936409 24.125381,103.955353 25.327065,104.375656 
	C25.777859,105.855026 25.821644,106.933037 25.865431,108.011063 
z"/>
<path fill="#7D1827" opacity="1.000000" stroke="none" 
	d="
M56.571404,66.004486 
	C58.968887,67.448891 57.892262,68.210274 56.075119,68.976906 
	C54.887032,68.272659 53.976425,67.459869 52.930733,66.368675 
	C53.914341,66.061111 55.033031,66.031967 56.571404,66.004486 
z"/>
<path fill="#782630" opacity="1.000000" stroke="none" 
	d="
M44.647800,12.061871 
	C43.157715,12.934619 41.310322,13.755207 39.237465,14.341654 
	C40.771500,13.408244 42.530998,12.708977 44.647800,12.061871 
z"/>
<path fill="#7C202E" opacity="1.000000" stroke="none" 
	d="
M183.584198,57.009521 
	C183.216202,58.539246 182.549896,60.220570 181.524506,61.963425 
	C181.872269,60.403675 182.579086,58.782398 183.584198,57.009521 
z"/>
<path fill="#7C202E" opacity="1.000000" stroke="none" 
	d="
M193.599670,52.192017 
	C191.881439,52.854389 189.784790,53.419334 187.302704,53.960335 
	C189.018600,53.322456 191.119934,52.708519 193.599670,52.192017 
z"/>
<path fill="#7C202E" opacity="1.000000" stroke="none" 
	d="
M198.588058,38.053474 
	C198.510452,38.684776 198.016800,39.238548 197.263031,39.898773 
	C195.995392,39.870129 194.987854,39.735027 193.980316,39.599930 
	C193.959564,39.174706 193.938797,38.749481 193.918030,38.324257 
	C195.336029,38.208153 196.754013,38.092045 198.588058,38.053474 
z"/>
<path fill="#822835" opacity="1.000000" stroke="none" 
	d="
M83.967354,96.363281 
	C85.219513,96.830521 86.550911,97.627594 87.883972,98.798790 
	C86.605949,98.346313 85.326279,97.519714 83.967354,96.363281 
z"/>
<path fill="#7C202E" opacity="1.000000" stroke="none" 
	d="
M186.628891,53.977039 
	C186.149994,54.908489 185.355515,55.900902 184.206009,56.891289 
	C184.671753,55.938847 185.492523,54.988422 186.628891,53.977039 
z"/>
<path fill="#822E3E" opacity="1.000000" stroke="none" 
	d="
M34.566574,97.153664 
	C33.157433,97.336830 31.326456,97.437180 29.247852,97.276245 
	C30.715063,97.033585 32.429901,97.052223 34.566574,97.153664 
z"/>
<path fill="#822835" opacity="1.000000" stroke="none" 
	d="
M88.106750,99.419289 
	C89.690567,99.133461 91.534904,99.136818 93.832657,99.255890 
	C92.313141,99.483902 90.340202,99.596191 88.106750,99.419289 
z"/>
<path fill="#802230" opacity="1.000000" stroke="none" 
	d="
M229.156006,61.898827 
	C228.176025,61.834129 227.323898,61.670338 226.471786,61.506546 
	C226.507660,61.158127 226.543533,60.809708 226.579422,60.461292 
	C227.350906,60.596954 228.122391,60.732616 229.062851,61.174347 
	C229.231827,61.480415 229.283859,61.799732 229.156006,61.898827 
z"/>
<path fill="#822E3E" opacity="1.000000" stroke="none" 
	d="
M25.484592,98.438637 
	C25.208544,99.007698 24.766073,99.871803 24.035488,100.780426 
	C24.270973,100.127853 24.794573,99.430771 25.484592,98.438637 
z"/>
<path fill="#822835" opacity="1.000000" stroke="none" 
	d="
M81.941612,90.348740 
	C82.338470,91.084969 82.682053,92.180214 83.014290,93.643265 
	C82.631409,92.909966 82.259865,91.808853 81.941612,90.348740 
z"/>
<path fill="#7C202E" opacity="1.000000" stroke="none" 
	d="
M180.510941,63.675873 
	C180.689987,64.746429 180.584656,66.107262 180.150116,67.709778 
	C179.956146,66.623032 180.091354,65.294586 180.510941,63.675873 
z"/>
<path fill="#7D1827" opacity="1.000000" stroke="none" 
	d="
M74.015457,76.660538 
	C73.660194,76.197273 73.339966,75.390335 73.054504,74.236496 
	C73.409676,74.698685 73.730080,75.507774 74.015457,76.660538 
z"/>
<path fill="#822835" opacity="1.000000" stroke="none" 
	d="
M81.492523,84.604034 
	C81.812889,85.388870 81.873940,86.470169 81.885849,88.093521 
	C81.635536,87.390556 81.434372,86.145531 81.492523,84.604034 
z"/>
<path fill="#802230" opacity="1.000000" stroke="none" 
	d="
M230.380035,58.113785 
	C230.235565,57.696548 230.336853,57.066200 230.686920,56.222988 
	C230.832397,56.640308 230.729095,57.270493 230.380035,58.113785 
z"/>
<path fill="#782630" opacity="1.000000" stroke="none" 
	d="
M40.265335,21.876213 
	C40.243095,21.459831 40.478889,20.908108 41.022888,20.288946 
	C41.061852,20.727962 40.792606,21.234415 40.265335,21.876213 
z"/>
<path fill="#782630" opacity="1.000000" stroke="none" 
	d="
M46.428749,16.177984 
	C46.591457,15.835052 47.065784,15.450334 47.869858,15.072407 
	C47.713188,15.431532 47.226780,15.783863 46.428749,16.177984 
z"/>
<path fill="#71212F" opacity="1.000000" stroke="none" 
	d="
M19.227364,72.788605 
	C19.224346,72.402977 19.463182,71.865547 19.997334,71.244202 
	C20.018171,71.652458 19.743694,72.144630 19.227364,72.788605 
z"/>
<path fill="#71212F" opacity="1.000000" stroke="none" 
	d="
M20.438019,71.173798 
	C20.372469,70.949455 20.579632,70.616524 21.079453,70.200302 
	C21.151651,70.433083 20.931192,70.749146 20.438019,71.173798 
z"/>
<path fill="#822E3E" opacity="1.000000" stroke="none" 
	d="
M23.549349,100.889145 
	C23.700512,101.085999 23.609629,101.396675 23.316828,101.856644 
	C23.179043,101.671616 23.243172,101.337296 23.549349,100.889145 
z"/>
<path fill="#7C3240" opacity="1.000000" stroke="none" 
	d="
M132.140121,99.749001 
	C132.053024,99.669838 132.113358,99.487602 132.086853,99.028885 
	C132.000046,98.752396 132.302719,99.070328 132.521881,99.078720 
	C132.584991,99.269432 132.433838,99.455704 132.140121,99.749001 
z"/>
<path fill="#782630" opacity="1.000000" stroke="none" 
	d="
M42.435158,19.154987 
	C42.368221,18.917915 42.581299,18.590502 43.091896,18.199871 
	C43.164669,18.445986 42.939922,18.755318 42.435158,19.154987 
z"/>
<path fill="#782630" opacity="1.000000" stroke="none" 
	d="
M45.262615,16.962954 
	C45.224758,16.734900 45.454498,16.481323 45.944359,16.189796 
	C45.979729,16.413708 45.754971,16.675570 45.262615,16.962954 
z"/>
<path fill="#782630" opacity="1.000000" stroke="none" 
	d="
M41.507896,20.201664 
	C41.401604,19.970009 41.549355,19.640406 41.970074,19.233290 
	C42.082672,19.471754 41.922302,19.787735 41.507896,20.201664 
z"/>
<path fill="#7D1827" opacity="1.000000" stroke="none" 
	d="
M65.990250,61.716404 
	C65.765717,61.762253 65.500214,61.538746 65.183929,61.052879 
	C65.405182,61.009365 65.677231,61.228203 65.990250,61.716404 
z"/>
<path fill="#782630" opacity="1.000000" stroke="none" 
	d="
M39.354439,23.127268 
	C39.249039,22.924530 39.395031,22.601900 39.776207,22.142019 
	C39.876205,22.338972 39.741016,22.673174 39.354439,23.127268 
z"/>
<path fill="#71212F" opacity="1.000000" stroke="none" 
	d="
M20.700996,65.998566 
	C20.717024,66.232079 20.425064,66.500046 19.832426,66.815216 
	C19.818836,66.585960 20.105923,66.309494 20.700996,65.998566 
z"/>
<path fill="#71212F" opacity="1.000000" stroke="none" 
	d="
M18.723961,67.071083 
	C18.770845,67.309326 18.543789,67.554062 18.072849,67.872154 
	C18.035986,67.656197 18.243002,67.366890 18.723961,67.071083 
z"/>
<path fill="#7D1827" opacity="1.000000" stroke="none" 
	d="
M49.980522,47.739304 
	C49.783161,47.946301 49.524433,47.845039 49.174904,47.480965 
	C49.389103,47.134514 49.667454,47.205479 49.980522,47.739304 
z"/>
<path fill="#FDFCFC" opacity="1.000000" stroke="none" 
	d="
M158.056747,70.977112 
	C158.043335,64.303955 158.029922,57.630795 158.007996,50.265579 
	C158.007126,49.405682 158.014740,49.237843 158.022339,49.070004 
	C162.324814,48.980995 167.145950,52.753178 167.144409,56.693920 
	C167.140167,67.610199 166.879089,78.526375 166.162613,89.582146 
	C165.394775,89.125603 165.183823,88.529503 164.969757,87.471512 
	C164.969070,78.025993 164.971512,69.042366 164.968201,59.799744 
	C164.848160,59.299988 164.733856,59.059227 164.619553,58.818470 
	C164.421738,59.231926 164.223923,59.645382 163.840607,60.432442 
	C163.446243,69.518730 163.237366,78.231407 163.018631,87.394730 
	C163.041397,89.651474 163.074036,91.457581 163.106659,93.263695 
	C162.602142,93.866463 162.097626,94.469231 161.288391,95.158493 
	C160.663010,95.328362 160.342377,95.411743 159.655701,95.604103 
	C158.915054,95.479546 158.540436,95.246017 158.165802,95.012482 
	C158.118729,94.564209 158.071640,94.115929 158.475281,93.320175 
	C159.596512,91.585205 160.266998,90.197708 160.954315,88.353683 
	C160.971161,78.967751 160.971161,70.038338 160.971161,61.108921 
	C160.022934,63.556915 160.197510,66.020622 159.932831,68.436211 
	C159.833710,69.340836 158.712143,70.133438 158.056747,70.977112 
M163.471237,54.610611 
	C163.181519,54.879322 162.891815,55.148033 162.602097,55.416740 
	C162.705841,55.519241 162.889709,55.719635 162.901581,55.709915 
	C163.193558,55.470890 163.467300,55.209576 163.471237,54.610611 
z"/>
<path fill="#FCF8F8" opacity="1.000000" stroke="none" 
	d="
M163.434570,93.149551 
	C163.074036,91.457581 163.041397,89.651474 163.263062,87.519852 
	C164.002533,87.440689 164.487701,87.687042 164.972885,87.933403 
	C165.183823,88.529503 165.394775,89.125603 165.877579,89.897308 
	C165.353760,91.060425 164.558105,92.047920 163.434570,93.149551 
z"/>
<path fill="#801625" opacity="1.000000" stroke="none" 
	d="
M156.636383,76.964081 
	C156.988876,77.444031 156.991791,77.888695 156.989838,78.666832 
	C155.724228,78.457863 154.463501,77.915421 153.202759,77.372978 
	C154.230774,77.224915 155.258774,77.076851 156.636383,76.964081 
z"/>
<path fill="#FCF8F8" opacity="1.000000" stroke="none" 
	d="
M157.777618,49.069759 
	C158.014740,49.237843 158.007126,49.405682 157.985291,49.825314 
	C157.971069,50.077103 157.512726,49.978321 157.286469,49.917416 
	C157.028198,49.480347 157.185760,49.218018 157.777618,49.069759 
z"/>
<path fill="#FDFBFC" opacity="1.000000" stroke="none" 
	d="
M186.028198,90.212700 
	C185.939987,83.975807 185.962585,77.944679 185.919586,71.447678 
	C185.917419,70.541023 185.980865,70.100258 186.080292,69.084427 
	C186.073456,68.341347 186.030624,68.173317 185.987778,68.005287 
	C186.148819,67.440353 186.309845,66.875420 186.640381,65.735687 
	C186.875885,64.435913 186.941864,63.710930 187.007858,62.985947 
	C187.007858,62.985947 187.229675,62.814732 187.465942,62.508911 
	C187.850616,61.819668 187.999039,61.436249 188.147461,61.052834 
	C190.732986,59.693306 193.318512,58.333775 196.344559,56.742611 
	C196.344559,70.406853 196.344559,82.723709 196.119202,95.381821 
	C193.127884,94.953232 190.361954,94.183388 187.300354,93.207802 
	C187.004700,93.002068 187.000198,92.999695 186.984222,92.675613 
	C186.731079,92.011101 186.493912,91.670662 186.256744,91.330231 
	C186.330444,91.011719 186.291183,90.707794 186.028198,90.212700 
z"/>
<path fill="#7C202E" opacity="1.000000" stroke="none" 
	d="
M186.732452,63.247826 
	C186.941864,63.710930 186.875885,64.435913 186.580292,65.446663 
	C186.386154,64.991524 186.421600,64.250618 186.732452,63.247826 
z"/>
<path fill="#7C202E" opacity="1.000000" stroke="none" 
	d="
M187.873505,61.213501 
	C187.999039,61.436249 187.850616,61.819668 187.438828,62.371452 
	C187.316818,62.151268 187.458191,61.762718 187.873505,61.213501 
z"/>
<path fill="#7C202E" opacity="1.000000" stroke="none" 
	d="
M185.824554,68.087189 
	C186.030624,68.173317 186.073456,68.341347 186.025818,68.753250 
	C185.781464,68.824249 185.609268,68.662956 185.487167,68.469978 
	C185.458450,68.424591 185.598785,68.272232 185.824554,68.087189 
z"/>
<path fill="#FCF9FA" opacity="1.000000" stroke="none" 
	d="
M26.004627,108.300888 
	C25.821644,106.933037 25.777859,105.855026 25.724279,104.371338 
	C30.068623,102.614258 34.422764,101.262856 38.776901,99.911446 
	C38.652626,100.582672 38.528351,101.253899 38.404079,101.925125 
	C41.060406,104.581703 43.716736,107.238274 46.689194,110.324112 
	C46.992264,111.161667 46.979206,111.569946 46.737144,112.155106 
	C46.474228,112.877998 46.440315,113.424011 46.406399,113.970024 
	C46.564220,113.974419 46.722046,113.978813 46.879871,113.983208 
	C46.934456,113.336342 46.989044,112.689484 47.335518,112.053566 
	C48.448952,111.913597 49.270500,111.762680 50.092041,111.611771 
	C49.146446,110.406723 48.200851,109.201675 47.255257,107.996628 
	C46.652718,106.488487 45.958244,105.009537 45.468220,103.465683 
	C44.640797,100.858856 44.566879,98.782684 47.376003,96.763123 
	C49.729939,95.070824 51.140972,92.066986 53.286133,89.186798 
	C53.824612,88.510841 53.949081,88.246147 53.976158,87.935654 
	C53.976158,87.935654 54.056362,87.463966 54.432854,87.187469 
	C55.751335,85.829079 56.693321,84.747192 57.462559,83.863708 
	C56.599995,82.889938 55.820755,82.010231 55.041515,81.130531 
	C56.383953,79.052834 57.726391,76.975143 59.076103,74.545944 
	C59.422432,74.186592 59.761486,74.178741 60.442093,74.450226 
	C61.154903,75.196106 61.526165,75.662651 61.897423,76.129204 
	C61.897423,76.129204 61.948654,76.050056 61.927475,76.376518 
	C62.238865,77.217247 62.571438,77.731514 62.904011,78.245781 
	C62.904011,78.245781 62.904991,78.647789 62.979053,79.068375 
	C63.229267,79.762604 63.405422,80.036232 63.581573,80.309868 
	C63.581573,80.309868 63.597054,80.345047 63.592850,80.363983 
	C63.522129,82.581963 63.455612,84.781013 62.908146,86.907532 
	C62.427197,86.834999 62.185051,86.834717 62.095364,86.569519 
	C61.669109,86.015961 61.344597,85.708992 60.975967,85.470085 
	C60.941826,85.447952 60.627377,85.858322 60.443077,86.067871 
	C60.913769,86.429558 61.384460,86.791245 61.998459,87.356674 
	C62.382256,87.812019 62.675678,87.954842 63.022041,87.988907 
	C63.866535,89.399178 65.646545,91.011078 65.393562,92.184799 
	C64.298935,97.263458 62.609924,102.213997 60.821167,107.669647 
	C60.336494,108.417763 60.167778,108.707367 59.999069,108.996979 
	C59.715363,109.182343 59.431656,109.367706 58.831287,109.927567 
	C58.201870,110.757370 57.889122,111.212685 57.576370,111.667992 
	C57.576370,111.667992 57.550140,111.688469 57.538109,111.676331 
	C53.893841,114.853447 50.279568,118.084831 44.583931,116.671051 
	C44.274635,115.332573 44.235237,114.391975 44.195839,113.451385 
	C43.788181,113.991013 43.380524,114.530640 42.972870,115.070267 
	C38.547222,114.063301 34.121578,113.056335 29.208529,111.731232 
	C28.505749,111.199158 28.248259,111.067726 27.948647,111.018791 
	C27.347038,110.209442 26.745432,109.400085 26.004627,108.300888 
z"/>
<path fill="#F4ECED" opacity="1.000000" stroke="none" 
	d="
M54.753845,81.232529 
	C55.820755,82.010231 56.599995,82.889938 57.462559,83.863708 
	C56.693321,84.747192 55.751335,85.829079 54.512897,86.962021 
	C54.161259,86.843994 54.106068,86.674911 53.973446,85.928574 
	C53.277145,84.902306 52.658272,84.453278 52.039398,84.004250 
	C52.848328,83.114342 53.657253,82.224434 54.753845,81.232529 
z"/>
<path fill="#FAF6F7" opacity="1.000000" stroke="none" 
	d="
M47.198425,108.354141 
	C48.200851,109.201675 49.146446,110.406723 50.092041,111.611771 
	C49.270500,111.762680 48.448952,111.913597 47.317101,112.036324 
	C47.006790,112.008133 46.966148,111.978233 46.966148,111.978233 
	C46.979206,111.569946 46.992264,111.161667 47.019733,110.447357 
	C47.069962,109.664780 47.105778,109.188225 47.198425,108.354141 
z"/>
<path fill="#FCF9FA" opacity="1.000000" stroke="none" 
	d="
M51.695400,84.325699 
	C52.658272,84.453278 53.277145,84.902306 53.951500,85.662682 
	C53.121792,85.531738 52.236595,85.089439 51.695400,84.325699 
z"/>
<path fill="#FCF9FA" opacity="1.000000" stroke="none" 
	d="
M51.311653,86.671928 
	C50.920979,87.169868 50.603481,87.268333 50.285980,87.366791 
	C50.290154,86.983421 50.294327,86.600060 50.298500,86.216690 
	C50.660606,86.235275 51.022720,86.253860 51.311653,86.671928 
z"/>
<path fill="#F4ECED" opacity="1.000000" stroke="none" 
	d="
M53.722015,88.007469 
	C53.949081,88.246147 53.824612,88.510841 53.419456,88.856918 
	C53.313400,88.682503 53.390636,88.380890 53.722015,88.007469 
z"/>
<path fill="#830D26" opacity="1.000000" stroke="none" 
	d="
M139.995377,98.909409 
	C138.993149,97.871429 137.990921,96.833458 136.989731,95.407944 
	C137.152405,83.141869 137.300720,71.263069 137.535629,59.385983 
	C137.543182,59.003521 138.437180,58.638596 139.290161,57.976639 
	C139.739548,59.765572 140.082184,61.129562 140.684784,62.740410 
	C140.946793,65.040649 140.948853,67.094032 140.657501,69.889183 
	C140.241180,80.057106 140.118271,89.483253 139.995377,98.909409 
z"/>
<path fill="#861023" opacity="1.000000" stroke="none" 
	d="
M120.353592,96.026611 
	C120.009323,90.307175 120.004578,84.624641 120.001717,78.475082 
	C123.707123,76.512360 125.183884,77.761940 125.042381,81.731003 
	C124.860672,86.827660 124.998215,91.935707 124.998215,97.787445 
	C122.953842,96.968796 121.823479,96.516151 120.353592,96.026611 
z"/>
<path fill="#802230" opacity="1.000000" stroke="none" 
	d="
M226.454819,57.529335 
	C226.425690,57.478714 226.483948,57.579960 226.454819,57.529335 
z"/>
<path fill="#FBF8F8" opacity="1.000000" stroke="none" 
	d="
M100.872025,89.436676 
	C99.479813,89.498192 98.086685,89.249657 96.938812,89.044868 
	C95.293243,90.841316 93.782600,92.490463 92.086975,94.410019 
	C91.433784,94.509911 90.965584,94.339394 90.199898,93.808914 
	C89.635643,93.202034 89.368866,92.955124 89.102089,92.708206 
	C89.102089,92.708206 89.121185,92.326363 89.063408,91.828445 
	C88.919220,90.891640 88.832809,90.452736 88.746391,90.013840 
	C88.789291,88.939369 88.832191,87.864891 88.911041,86.062645 
	C88.912148,84.885124 88.877304,84.435387 88.842461,83.985641 
	C89.365471,80.238777 91.887299,78.298241 95.764877,77.009521 
	C96.577843,77.009140 96.765358,77.016891 96.952866,77.024651 
	C96.952866,77.024651 97.010155,77.032082 97.032440,77.231430 
	C97.347435,77.442856 97.640152,77.454933 97.932861,77.467010 
	C98.962944,76.131340 99.993034,74.795662 101.311272,73.330475 
	C101.707588,73.981171 101.815742,74.761368 101.959412,76.201187 
	C102.030136,79.575165 102.065353,82.289520 102.100563,85.003868 
	C101.962273,85.408241 101.823982,85.812607 101.650665,86.537094 
	C101.367470,87.613686 101.119293,88.370148 100.872025,89.436676 
M98.523521,84.561844 
	C98.601974,83.310570 98.680420,82.059296 98.758873,80.808022 
	C98.374931,80.840324 97.990982,80.872635 97.607040,80.904938 
	C97.739349,82.271187 97.871658,83.637428 97.377960,85.091064 
	C96.942322,85.713303 96.506683,86.335541 96.071045,86.957779 
	C96.408035,87.106522 96.745026,87.255264 97.082016,87.404007 
	C97.386742,86.601349 97.691467,85.798698 98.523521,84.561844 
z"/>
<path fill="#7B1828" opacity="1.000000" stroke="none" 
	d="
M102.476700,84.909027 
	C102.065353,82.289520 102.030136,79.575165 102.059723,76.411789 
	C105.449219,78.659645 104.255737,81.728302 102.476700,84.909027 
z"/>
<path fill="#7E1F2F" opacity="1.000000" stroke="none" 
	d="
M61.902306,75.792099 
	C61.526165,75.662651 61.154903,75.196106 60.699364,74.432816 
	C61.045784,74.575722 61.476486,75.015366 61.902306,75.792099 
z"/>
<path fill="#7E1F2F" opacity="1.000000" stroke="none" 
	d="
M62.919487,77.913284 
	C62.571438,77.731514 62.238865,77.217247 61.880688,76.382278 
	C62.215042,76.567986 62.575001,77.074387 62.919487,77.913284 
z"/>
<path fill="#7E1F2F" opacity="1.000000" stroke="none" 
	d="
M63.648487,80.057526 
	C63.405422,80.036232 63.229267,79.762604 63.090523,79.235641 
	C63.323753,79.256607 63.519577,79.530891 63.648487,80.057526 
z"/>
<path fill="#7A2230" opacity="1.000000" stroke="none" 
	d="
M57.888527,111.650482 
	C57.889122,111.212685 58.201870,110.757370 58.766560,110.181564 
	C58.745892,110.585037 58.473286,111.109009 57.888527,111.650482 
z"/>
<path fill="#7A2230" opacity="1.000000" stroke="none" 
	d="
M60.223053,108.878540 
	C60.167778,108.707367 60.336494,108.417763 60.738853,108.020065 
	C60.797344,108.194695 60.622192,108.477394 60.223053,108.878540 
z"/>
<path fill="#F4ECED" opacity="1.000000" stroke="none" 
	d="
M62.894470,87.721458 
	C62.675678,87.954842 62.382256,87.812019 62.079124,87.275253 
	C62.016479,86.990067 62.185051,86.834717 62.185051,86.834717 
	C62.185051,86.834717 62.427197,86.834999 62.545750,86.852661 
	C62.698498,87.064888 62.732697,87.259453 62.894470,87.721458 
z"/>
<path fill="#87071F" opacity="1.000000" stroke="none" 
	d="
M234.127869,42.081497 
	C233.278473,43.696453 232.528625,44.932976 231.778763,46.169498 
	C231.191040,45.969032 230.603317,45.768566 230.015594,45.568100 
	C230.436249,43.356190 230.720383,41.101757 231.385529,38.965984 
	C231.529388,38.504040 233.043579,38.468868 233.926590,38.237118 
	C234.026855,39.392433 234.127136,40.547752 234.127869,42.081497 
z"/>
<path fill="#FAF6F7" opacity="1.000000" stroke="none" 
	d="
M42.970802,115.341858 
	C43.380524,114.530640 43.788181,113.991013 44.195839,113.451385 
	C44.235237,114.391975 44.274635,115.332573 44.169933,116.566902 
	C43.673462,116.444916 43.321098,116.029190 42.970802,115.341858 
z"/>
<path fill="#FAF6F7" opacity="1.000000" stroke="none" 
	d="
M28.019985,111.264999 
	C28.248259,111.067726 28.505749,111.199158 28.847673,111.592613 
	C28.679924,111.685150 28.385622,111.598175 28.019985,111.264999 
z"/>
<path fill="#822835" opacity="1.000000" stroke="none" 
	d="
M88.630936,83.989944 
	C88.877304,84.435387 88.912148,84.885124 88.854858,85.662643 
	C88.515350,85.514915 88.267967,85.039413 88.008522,84.285767 
	C87.996460,84.007629 88.419403,83.994255 88.630936,83.989944 
z"/>
<path fill="#F3E8EA" opacity="1.000000" stroke="none" 
	d="
M97.673615,77.413788 
	C97.640152,77.454933 97.347435,77.442856 97.012245,77.252075 
	C97.117966,77.169090 97.266174,77.264824 97.673615,77.413788 
z"/>
<path fill="#F3E8EA" opacity="1.000000" stroke="none" 
	d="
M96.964584,76.773941 
	C96.765358,77.016891 96.577843,77.009140 96.111496,76.962044 
	C96.213875,76.789543 96.595093,76.656380 96.964584,76.773941 
z"/>
<path fill="#822835" opacity="1.000000" stroke="none" 
	d="
M88.562973,90.185066 
	C88.832809,90.452736 88.919220,90.891640 88.963181,91.665680 
	C88.740326,91.452644 88.559937,90.904465 88.562973,90.185066 
z"/>
<path fill="#822835" opacity="1.000000" stroke="none" 
	d="
M89.157715,92.982552 
	C89.368866,92.955124 89.635643,93.202034 89.960899,93.723694 
	C89.750694,93.751266 89.482010,93.504082 89.157715,92.982552 
z"/>
<path fill="#BAA8A9" opacity="1.000000" stroke="none" 
	d="
M157.956665,71.433823 
	C158.712143,70.133438 159.833710,69.340836 159.932831,68.436211 
	C160.197510,66.020622 160.022934,63.556915 160.971161,61.108921 
	C160.971161,70.038338 160.971161,78.967751 160.657150,88.176086 
	C159.574921,87.310905 158.806702,86.166801 158.038483,85.022690 
	C157.977859,80.645294 157.917206,76.267914 157.956665,71.433823 
z"/>
<path fill="#FCF8F8" opacity="1.000000" stroke="none" 
	d="
M158.021835,85.465866 
	C158.806702,86.166801 159.574921,87.310905 160.640320,88.632614 
	C160.266998,90.197708 159.596512,91.585205 158.546875,92.987869 
	C158.113556,90.638367 158.059372,88.273705 158.021835,85.465866 
z"/>
<path fill="#FCF8F8" opacity="1.000000" stroke="none" 
	d="
M158.098633,95.298843 
	C158.540436,95.246017 158.915054,95.479546 159.481018,95.824722 
	C159.125381,95.819305 158.578415,95.702255 158.098633,95.298843 
z"/>
<path fill="#7C202E" opacity="1.000000" stroke="none" 
	d="
M186.247192,91.656677 
	C186.493912,91.670662 186.731079,92.011101 186.984528,92.672768 
	C186.746414,92.657051 186.492020,92.320099 186.247192,91.656677 
z"/>
<path fill="#7B1425" opacity="1.000000" stroke="none" 
	d="
M140.307602,98.641708 
	C140.118271,89.483253 140.241180,80.057106 140.641479,70.328453 
	C140.819199,79.475304 140.719513,88.924660 140.307602,98.641708 
z"/>
<path fill="#DED2D2" opacity="1.000000" stroke="none" 
	d="
M164.969757,87.471512 
	C164.487701,87.687042 164.002533,87.440689 163.272919,87.069214 
	C163.237366,78.231407 163.446243,69.518730 164.077454,60.416885 
	C164.499802,60.027729 164.973953,60.058735 164.973953,60.058735 
	C164.971512,69.042366 164.969070,78.025993 164.969757,87.471512 
z"/>
<path fill="#FCF8F8" opacity="1.000000" stroke="none" 
	d="
M163.607758,54.781425 
	C163.467300,55.209576 163.193558,55.470890 162.901581,55.709915 
	C162.889709,55.719635 162.705841,55.519241 162.602097,55.416740 
	C162.891815,55.148033 163.181519,54.879322 163.607758,54.781425 
z"/>
<path fill="#FCF8F8" opacity="1.000000" stroke="none" 
	d="
M164.968201,59.799744 
	C164.973953,60.058735 164.499802,60.027729 164.262939,60.043282 
	C164.223923,59.645382 164.421738,59.231926 164.619553,58.818470 
	C164.733856,59.059227 164.848160,59.299988 164.968201,59.799744 
z"/>
<path fill="#F4ECED" opacity="1.000000" stroke="none" 
	d="
M61.935814,87.071495 
	C61.384460,86.791245 60.913769,86.429558 60.443077,86.067871 
	C60.627377,85.858322 60.941826,85.447952 60.975967,85.470085 
	C61.344597,85.708992 61.669109,86.015961 62.095364,86.569519 
	C62.185051,86.834717 62.016479,86.990067 61.935814,87.071495 
z"/>
<path fill="#FAF6F7" opacity="1.000000" stroke="none" 
	d="
M47.025211,112.025375 
	C46.989044,112.689484 46.934456,113.336342 46.879871,113.983208 
	C46.722046,113.978813 46.564220,113.974419 46.406399,113.970024 
	C46.440315,113.424011 46.474228,112.877998 46.737144,112.155106 
	C46.966148,111.978233 47.006790,112.008133 47.025211,112.025375 
z"/>
<path fill="#F3E8EA" opacity="1.000000" stroke="none" 
	d="
M98.003967,85.003677 
	C97.871658,83.637428 97.739349,82.271187 97.607040,80.904938 
	C97.990982,80.872635 98.374931,80.840324 98.758873,80.808022 
	C98.680420,82.059296 98.601974,83.310570 98.261765,84.780922 
	C98.000000,85.000000 98.003960,85.003677 98.003967,85.003677 
z"/>
<path fill="#F3E8EA" opacity="1.000000" stroke="none" 
	d="
M97.998100,84.998016 
	C97.691467,85.798698 97.386742,86.601349 97.082016,87.404007 
	C96.745026,87.255264 96.408035,87.106522 96.071045,86.957779 
	C96.506683,86.335541 96.942322,85.713303 97.690964,85.047371 
	C98.003960,85.003677 98.000000,85.000000 97.998100,84.998016 
z"/>
</svg>