<svg width="30" height="28" viewBox="0 0 30 28" fill="none" xmlns="http://www.w3.org/2000/svg">
<path id="Vector" d="M27.6667 27.141L17.1667 17.6416C16.3333 18.2448 15.375 18.7222 14.2917 19.0741C13.2083 19.4259 12.0556 19.6018 10.8333 19.6018C7.80556 19.6018 5.24333 18.6529 3.14667 16.755C1.05 14.8572 0.00111111 12.5391 0 9.8009C0 7.06168 1.04889 4.74364 3.14667 2.84679C5.24444 0.949934 7.80667 0.00100522 10.8333 0C13.8611 0 16.4239 0.948929 18.5217 2.84679C20.6194 4.74464 21.6678 7.06268 21.6667 9.8009C21.6667 10.9066 21.4722 11.9496 21.0833 12.9297C20.6944 13.9097 20.1667 14.7767 19.5 15.5307L30 25.03L27.6667 27.141ZM10.8333 16.5861C12.9167 16.5861 14.6878 15.9267 16.1467 14.6079C17.6056 13.289 18.3344 11.6867 18.3333 9.8009C18.3333 7.91612 17.6044 6.3143 16.1467 4.99545C14.6889 3.6766 12.9178 3.01667 10.8333 3.01566C8.75 3.01566 6.97944 3.67559 5.52167 4.99545C4.06389 6.3153 3.33444 7.91712 3.33333 9.8009C3.33333 11.6857 4.06278 13.288 5.52167 14.6079C6.98056 15.9277 8.75111 16.5872 10.8333 16.5861Z" fill="#FBCB23"/>
</svg>
