<svg width="38" height="36" viewBox="0 0 38 36" fill="none" xmlns="http://www.w3.org/2000/svg">
<g id="Vector" filter="url(#filter0_d_7_32)">
<path d="M28 22.4672C26.335 22.4672 25 23.675 25 25.1813C25 25.9011 25.3161 26.5915 25.8787 27.1005C26.4413 27.6095 27.2044 27.8954 28 27.8954C28.7956 27.8954 29.5587 27.6095 30.1213 27.1005C30.6839 26.5915 31 25.9011 31 25.1813C31 24.4615 30.6839 23.7712 30.1213 23.2622C29.5587 22.7532 28.7956 22.4672 28 22.4672ZM4 0.754456V3.46855H7L12.4 13.7685L10.36 17.0933C10.135 17.4733 10 17.9211 10 18.3961C10 19.1159 10.3161 19.8062 10.8787 20.3152C11.4413 20.8242 12.2044 21.1102 13 21.1102H31V18.3961H13.63C13.5305 18.3961 13.4352 18.3603 13.3648 18.2967C13.2945 18.2331 13.255 18.1468 13.255 18.0568C13.255 17.989 13.27 17.9347 13.3 17.894L14.65 15.682H25.825C26.95 15.682 27.94 15.112 28.45 14.2842L33.82 5.50412C33.925 5.287 34 5.0563 34 4.8256C34 4.46569 33.842 4.12052 33.5607 3.86602C33.2794 3.61153 32.8978 3.46855 32.5 3.46855H10.315L8.905 0.754456M13 22.4672C11.335 22.4672 10 23.675 10 25.1813C10 25.9011 10.3161 26.5915 10.8787 27.1005C11.4413 27.6095 12.2044 27.8954 13 27.8954C13.7956 27.8954 14.5587 27.6095 15.1213 27.1005C15.6839 26.5915 16 25.9011 16 25.1813C16 24.4615 15.6839 23.7712 15.1213 23.2622C14.5587 22.7532 13.7956 22.4672 13 22.4672Z" fill="#FBCB23"/>
</g>
<defs>
<filter id="filter0_d_7_32" x="0" y="0.754456" width="38" height="35.141" filterUnits="userSpaceOnUse" color-interpolation-filters="sRGB">
<feFlood flood-opacity="0" result="BackgroundImageFix"/>
<feColorMatrix in="SourceAlpha" type="matrix" values="0 0 0 0 0 0 0 0 0 0 0 0 0 0 0 0 0 0 127 0" result="hardAlpha"/>
<feOffset dy="4"/>
<feGaussianBlur stdDeviation="2"/>
<feComposite in2="hardAlpha" operator="out"/>
<feColorMatrix type="matrix" values="0 0 0 0 0 0 0 0 0 0 0 0 0 0 0 0 0 0 1 0"/>
<feBlend mode="normal" in2="BackgroundImageFix" result="effect1_dropShadow_7_32"/>
<feBlend mode="normal" in="SourceGraphic" in2="effect1_dropShadow_7_32" result="shape"/>
</filter>
</defs>
</svg>
