<svg width="38" height="36" viewBox="0 0 38 36" fill="none" xmlns="http://www.w3.org/2000/svg">
<g id="Vector" filter="url(#filter0_d_6_29)">
<path d="M19 0.0403748C20.9891 0.0403748 22.8968 0.755246 24.3033 2.02773C25.7098 3.30021 26.5 5.02606 26.5 6.82562C26.5 8.62517 25.7098 10.351 24.3033 11.6235C22.8968 12.896 20.9891 13.6109 19 13.6109C17.0109 13.6109 15.1032 12.896 13.6967 11.6235C12.2902 10.351 11.5 8.62517 11.5 6.82562C11.5 5.02606 12.2902 3.30021 13.6967 2.02773C15.1032 0.755246 17.0109 0.0403748 19 0.0403748ZM19 17.0035C27.2875 17.0035 34 20.0399 34 23.7887V27.1813H4V23.7887C4 20.0399 10.7125 17.0035 19 17.0035Z" fill="#FBCB23"/>
</g>
<defs>
<filter id="filter0_d_6_29" x="0" y="0.0403748" width="38" height="35.141" filterUnits="userSpaceOnUse" color-interpolation-filters="sRGB">
<feFlood flood-opacity="0" result="BackgroundImageFix"/>
<feColorMatrix in="SourceAlpha" type="matrix" values="0 0 0 0 0 0 0 0 0 0 0 0 0 0 0 0 0 0 127 0" result="hardAlpha"/>
<feOffset dy="4"/>
<feGaussianBlur stdDeviation="2"/>
<feComposite in2="hardAlpha" operator="out"/>
<feColorMatrix type="matrix" values="0 0 0 0 0 0 0 0 0 0 0 0 0 0 0 0 0 0 1 0"/>
<feBlend mode="normal" in2="BackgroundImageFix" result="effect1_dropShadow_6_29"/>
<feBlend mode="normal" in="SourceGraphic" in2="effect1_dropShadow_6_29" result="shape"/>
</filter>
</defs>
</svg>
